
<svg width="72" height="72" viewBox="0 0 72 72" fill="none" xmlns="http://www.w3.org/2000/svg">
<path d="M47.0687 1.12248L47.4323 1.35991C51.4219 3.96914 54.6338 4.44671 59.5214 4.44671C61.2447 4.44671 63.093 4.12683 64.8647 3.52291L65.3285 3.36433L67.646 6.57208L67.4075 6.88658C58.7978 18.1863 65.5114 30.3857 70.2637 35.2556L70.703 35.7063L70.2548 36.148C69.6318 36.7627 68.5528 37.8711 67.7509 38.7017L67.4798 38.9848L67.4972 39.3719L67.5014 39.5072C67.506 39.6058 67.5092 39.7079 67.5295 39.8862L67.5369 39.957C67.9391 47.4935 65.9618 53.6841 61.6599 58.3551C57.0884 63.3191 49.8784 66.3073 41.3572 66.7688L41.0291 66.7876L40.7856 67.0071C38.616 68.9577 36.4136 70.5777 36.3902 70.5957L36.0062 70.8779L35.6221 70.5975C35.531 70.5303 33.3559 68.9317 31.2146 67.0071L30.9711 66.7876L30.6427 66.7688C22.1218 66.3073 14.9111 63.3191 10.3396 58.3551C6.03671 53.6823 4.05941 47.4917 4.46373 39.9552L4.46975 39.8845C4.48925 39.7169 4.49315 39.6255 4.49739 39.5198L4.4981 39.492L4.49845 39.4884L4.50235 39.3719L4.51936 38.9839L4.24863 38.7017C3.49245 37.9177 2.38332 36.777 1.74478 36.148L1.29688 35.7063L1.73627 35.2556C6.48887 30.3857 13.2013 18.1863 4.59236 6.88658L4.35282 6.57208L6.67206 3.36433L7.13521 3.52291C8.90697 4.12683 10.7542 4.44671 12.4782 4.44671C17.3658 4.44671 20.5773 3.96914 24.5669 1.35991L24.9312 1.12248L25.2901 1.36799C28.8096 3.78098 32.2128 4.90459 36.0004 4.90459C39.7875 4.90459 43.1899 3.78098 46.7097 1.36799L47.0687 1.12248" fill="#CAA91E"/>
<path d="M9.78404 29.0244C12.4811 22.9153 13.4856 15.0688 8.94922 7.39977C10.0828 7.59869 11.2724 7.72235 12.4783 7.72235C17.1209 7.72235 20.7765 7.3048 24.8824 5.01277C28.1187 6.94639 31.7455 8.17574 35.9921 8.17933C40.2546 8.17574 43.88 6.94639 47.117 5.01277C51.2236 7.3048 54.8791 7.72235 59.5215 7.72235C60.7274 7.72235 61.9169 7.59869 63.0622 7.38096C58.5148 15.0688 59.518 22.9153 62.2157 29.0244H9.78404Z" fill="white"/>
<path d="M62.2154 29.0244C59.5177 22.9153 58.5145 15.0688 63.0619 7.38096C61.9166 7.59869 60.7271 7.72235 59.5212 7.72235C54.8788 7.72235 51.2233 7.3048 47.1166 5.01277C43.8797 6.94639 40.2543 8.17574 35.9918 8.17933C35.9507 8.17933 35.9106 8.17753 35.8691 8.17753V29.0244H62.2154" fill="#EDC720"/>
<path d="M56.4414 58.5498C61.608 54.8197 64.6592 48.8629 64.211 40.1732C64.1593 39.6795 64.122 39.6509 64.0824 39.1527H56.4414V58.5498Z" fill="#293D81"/>
<path d="M48.2646 62.2891C51.3401 61.4683 54.1079 60.2354 56.4431 58.5491V39.1528H48.2646V62.2891" fill="#7B1941"/>
<path d="M15.5566 58.5491C17.8929 60.2354 20.6597 61.4683 23.7362 62.2891V39.1528H15.5566V58.5491" fill="#7B1941"/>
<path d="M7.78855 40.1733C7.34029 48.863 10.3917 54.8206 15.5585 58.5508V39.1528H7.91682C7.87713 39.6509 7.84064 39.6796 7.78855 40.1733" fill="#293D81"/>
<path d="M36.0202 43.4422C37.5164 43.4422 38.9079 43.8705 40.09 44.5989V39.1529H31.9111V44.624C33.1011 43.8803 34.5078 43.4422 36.0202 43.4422" fill="#7B1941"/>
<path d="M36.0202 58.6647C34.5078 58.6647 33.1011 58.2275 31.9111 57.4829V63.5078C32.0554 63.5149 32.1985 63.5239 32.3435 63.532C35.0603 63.5454 37.5235 63.5597 39.6573 63.532C39.8027 63.5239 39.9454 63.5149 40.09 63.5078V57.508C38.9079 58.2364 37.5164 58.6647 36.0202 58.6647" fill="#7B1941"/>
<path d="M40.0879 39.153V44.5972C42.2689 45.9413 43.725 48.3274 43.725 51.0531C43.725 53.7797 42.2689 56.164 40.0879 57.5089V63.5078C42.9759 63.3636 45.7257 62.9657 48.2667 62.2892V39.153H40.0879" fill="#293D81"/>
<path d="M28.3159 51.0531C28.3159 48.3435 29.7535 45.9717 31.9129 44.6223V39.153H23.7334V62.2892C26.2741 62.9657 29.0246 63.3636 31.9129 63.5078V57.4838C29.7535 56.1344 28.3159 53.7636 28.3159 51.0531Z" fill="#293D81"/>
<path d="M11.626 14.249C12.1742 16.8932 12.1929 19.488 11.8403 21.9566H19.7849V29.0244H27.5878V21.9566H35.9014V14.249H27.5878V6.40968C26.6548 6.00289 25.7537 5.53336 24.882 5.01277C23.1386 5.98585 21.4756 6.61845 19.7849 7.02793V14.249H11.626" fill="#C01A39"/>
<path d="M52.6939 29.0244V7.13544C51.7538 6.93294 50.8246 6.66324 49.8906 6.30752V29.0244H52.6939" fill="#C01A39"/>
<path d="M41.4775 29.0244V7.44905C40.5749 7.69546 39.6412 7.88362 38.6738 8.00637V29.0244H41.4775Z" fill="#C01A39"/>
<path d="M58.3026 29.0244V7.70891C57.3332 7.69099 56.4023 7.64707 55.499 7.56195V29.0244H58.3026" fill="#C01A39"/>
<path d="M47.0863 29.0244V5.03069C46.1844 5.5683 45.2507 6.04857 44.2822 6.46612V29.0244H47.0863Z" fill="#C01A39"/>
<path d="M66.8034 38.7477C66.8839 39.5308 66.8371 39.5003 66.8917 39.9582C67.8286 57.3339 55.5736 65.5379 40.7634 66.1436C38.4994 68.2322 36.0062 70.0691 36.0062 70.0691C36.0062 70.0691 33.5006 68.2322 31.2366 66.1436C16.426 65.5379 4.17074 57.3339 5.10801 39.9582C5.16293 39.5003 5.1158 39.5308 5.1966 38.7477C4.34756 37.8615 2.94184 36.4126 2.20018 35.6806C7.51229 30.2363 13.7103 17.7798 5.10694 6.48631L6.92407 4.10646C8.6441 4.69336 10.5565 5.06612 12.4782 5.06612C17.4116 5.06612 20.7807 4.58226 24.9231 1.87268C28.1973 4.11812 31.748 5.52398 36.0005 5.52398C40.2525 5.52398 43.803 4.11812 47.0776 1.87268C51.2189 4.58226 54.5871 5.06612 59.5215 5.06612C61.4427 5.06612 63.3555 4.69336 65.0756 4.10646L66.8927 6.48631C58.2891 17.7798 64.4874 30.2363 69.8005 35.6806C69.0582 36.4126 67.6521 37.8615 66.8034 38.7477V38.7477ZM72 35.7021L70.9306 34.6044C66.3669 29.9281 59.9127 18.2278 68.1464 7.41908L68.7928 6.56874L65.6797 2.26067L64.5636 2.64148C62.8867 3.21404 61.1434 3.5151 59.5215 3.5151C54.8189 3.5151 51.737 3.06171 47.9437 0.580624L47.0563 2.37958e-06L46.1826 0.600334C42.8243 2.90132 39.5902 3.97296 36.0005 3.97296C32.4106 3.97296 29.1746 2.90132 25.8178 0.600334L24.9437 2.37958e-06L24.0567 0.580624C20.263 3.06171 17.1811 3.5151 12.4782 3.5151C10.856 3.5151 9.11291 3.21404 7.43647 2.64148L6.32025 2.26067L3.20583 6.56874L3.85254 7.41908C12.087 18.2278 5.63281 29.9281 1.07015 34.6044L0 35.7021L1.09141 36.7773C1.67786 37.3552 2.71824 38.4224 3.57791 39.3166C3.57578 39.3659 3.57508 39.4107 3.5733 39.4546C3.56976 39.5478 3.56727 39.6258 3.5492 39.7754L3.5407 39.8758C3.12008 47.6712 5.17781 54.0903 9.65511 58.953C14.4013 64.1069 21.8196 67.1892 30.592 67.6641C32.7653 69.6201 34.9719 71.2411 35.0707 71.3136L36.0083 72L36.9438 71.3118C37.042 71.2393 39.2365 69.6184 41.408 67.6641C50.1804 67.1892 57.5984 64.1069 62.3439 58.953C66.8222 54.0903 68.8792 47.6721 68.4593 39.8758L68.4504 39.7754C68.4324 39.6249 68.4296 39.5469 68.4274 39.4528C68.4253 39.4107 68.4235 39.3659 68.4218 39.3166C69.2821 38.4224 70.3232 37.3543 70.9086 36.7773L72 35.7021" fill="#040606"/>
<path d="M8.0227 40.1978C8.04573 39.9819 8.06523 39.8565 8.08365 39.7409C8.10031 39.6342 8.11626 39.5348 8.13219 39.3869H63.8678C63.8837 39.5366 63.9003 39.6342 63.9163 39.7418C63.9347 39.8565 63.9546 39.9819 63.9773 40.1862C64.3149 46.7388 62.6665 52.0325 59.0776 55.9222C54.9458 60.3969 48.2277 62.9488 39.6534 63.2991C37.6084 63.3269 35.2604 63.3153 32.6765 63.3009L32.3533 63.2991C23.7727 62.9488 17.0537 60.3969 12.9234 55.9222C9.33384 52.0334 7.68572 46.7388 8.0227 40.1978V40.1978ZM7.68288 39.1352C7.66161 39.4013 7.64071 39.5276 7.61874 39.6692C7.59925 39.791 7.5787 39.9237 7.55354 40.162C7.20911 46.8436 8.89867 52.2511 12.5758 56.2358C16.7929 60.8046 23.6253 63.4075 32.3423 63.7642L32.6737 63.765C34.1244 63.774 35.5007 63.7803 36.7909 63.7803C37.8022 63.7803 38.7607 63.7767 39.6665 63.7633C48.3751 63.4075 55.207 60.8046 59.4241 56.2358C63.1016 52.2502 64.7919 46.8436 64.445 40.1503C64.4216 39.9236 64.4004 39.791 64.3812 39.6692C64.3593 39.5276 64.3383 39.4013 64.3174 39.1352L64.2998 38.9201H7.69989L7.68288 39.1352Z" fill="#040606"/>
<path d="M9.39948 7.70828C10.4608 7.87136 11.4944 7.95289 12.4785 7.95289C17.2534 7.95289 20.8246 7.51384 24.8784 5.28094C28.34 7.32567 31.874 8.35071 35.666 8.40806V28.7917H10.1412C12.3817 23.5535 13.9608 15.7788 9.39948 7.70828ZM36.1362 8.41075C40.0075 8.38297 43.6049 7.35882 47.1226 5.28094C51.1757 7.51384 54.7465 7.95289 59.5218 7.95289C60.5327 7.95289 61.5681 7.86687 62.6089 7.69662C58.0434 15.7797 59.6188 23.5535 61.8587 28.7917H36.1362V8.41075ZM9.56858 28.9306L9.42507 29.2559H62.5745L62.431 28.9306C60.1231 23.7014 58.3921 15.7366 63.2655 7.49771L63.5266 7.05597L63.0182 7.15273C61.8417 7.37673 60.6652 7.48784 59.5218 7.48784C54.778 7.48784 51.2473 7.04969 47.2342 4.80963L47.1137 4.74243L46.9961 4.81322C43.4731 6.91888 39.8736 7.94393 35.9927 7.94662C32.1221 7.94393 28.5279 6.91888 25.0038 4.81322L24.8865 4.74243L24.7664 4.80963C20.7533 7.04969 17.2219 7.48784 12.4785 7.48784C11.3712 7.48784 10.1971 7.38213 8.99059 7.17067L8.49023 7.08286L8.74715 7.51652C13.6099 15.7393 11.8783 23.7014 9.56858 28.9306" fill="#040606"/>
<path d="M29.2927 32.0455V30.5115H24.0312V37.7119H25.6141V34.7425H27.7637V33.2202H25.6141V32.0455H29.2927" fill="#040606"/>
<path d="M35.4533 31.9533C36.0277 31.9533 36.4324 32.1899 36.6893 32.6773L36.7229 32.7418L38.1871 32.0752L38.1531 32.0053C37.6393 30.956 36.7123 30.4005 35.4739 30.4005C33.5614 30.4005 32.2266 31.9273 32.2266 34.1118C32.2266 36.3653 33.481 37.8223 35.4224 37.8223C36.6879 37.8223 37.6007 37.273 38.1322 36.1888L38.1637 36.1252L36.8331 35.3466L36.7939 35.4111C36.415 36.0374 36.0546 36.2704 35.4636 36.2704C34.498 36.2704 33.8492 35.4021 33.8492 34.1118C33.8492 32.7803 34.4643 31.9533 35.4533 31.9533" fill="#040606"/>
<path d="M45.3504 36.2191H43.5326V34.5498H45.3504C45.9918 34.5498 46.2916 34.8151 46.2916 35.3814C46.2916 35.9297 45.9656 36.2191 45.3504 36.2191ZM43.5326 31.963H45.2686C45.9762 31.963 46.0669 32.2838 46.0669 32.5607C46.0669 32.9567 45.8291 33.1485 45.3398 33.1485H43.5326V31.963ZM47.67 32.4505C47.67 31.2372 46.7948 30.5115 45.3298 30.5115H41.9805V37.7119H45.2987C46.9361 37.7119 47.9146 36.8329 47.9146 35.3599C47.9146 34.6771 47.5807 34.118 46.9943 33.8097C47.4255 33.5006 47.67 33.0123 47.67 32.4505" fill="#040606"/>
<path d="M31.3039 45.3389C31.1661 45.8765 31.0332 46.346 30.9269 46.8253C30.5466 48.5475 30.5505 51.1406 31.9694 52.4174C31.4832 53.2776 30.5881 53.7767 29.4928 53.7767C29.3617 53.7767 29.2341 53.7686 29.1083 53.7516C28.7618 52.9058 28.5704 51.9811 28.5704 51.0125C28.5704 48.7231 29.6366 46.6793 31.3039 45.3389V45.3389ZM40.1634 47.32C38.8711 46.6076 37.1748 45.9553 35.9513 46.458C35.026 45.8908 34.8665 44.4599 36.0342 43.7027C39.9413 43.735 43.1265 46.759 43.3559 50.5698C42.6581 49.2509 41.3831 47.9929 40.1634 47.32ZM39.6241 52.49C39.6121 52.2203 39.549 51.9372 39.4236 51.6397C39.0302 50.7123 37.6716 49.5833 35.9693 50.7446C34.7174 49.8145 34.794 48.3889 35.3467 47.5243C36.2064 46.1775 38.1621 46.7142 39.9487 47.6999C41.3977 48.5 42.9164 50.172 43.3384 51.6845C43.2665 52.4694 43.0681 53.2194 42.7637 53.9138C42.2608 52.3655 40.6287 52.1397 39.6241 52.49V52.49ZM31.1431 48.9946C31.1221 47.5628 31.5335 46.3084 31.8571 44.9356C32.8645 44.2681 34.0476 43.8398 35.3237 43.7323C34.4694 44.6516 34.6458 45.9992 35.5271 46.6936C35.3201 46.8433 35.1338 47.0404 34.9743 47.2913C34.3222 48.311 34.2291 50.0287 35.7439 51.1209C35.6518 51.9766 34.4962 52.818 33.6958 52.7167C31.9803 52.4999 31.1703 50.9274 31.1431 48.9946V48.9946ZM32.3209 52.6863C32.6837 52.921 33.1193 53.0832 33.6394 53.1486C34.6667 53.2785 36.0958 52.2705 36.1861 51.1254C37.5993 50.1371 38.6886 51.034 39.0178 51.809C39.666 53.3403 38.3006 54.446 36.543 55.4827C35.1823 56.282 32.8103 56.6664 31.2667 56.6547C30.451 55.9899 29.7812 55.1557 29.3139 54.2077C29.373 54.2104 29.4322 54.2122 29.4928 54.2122C30.7107 54.2122 31.7444 53.6602 32.3209 52.6863ZM35.9701 58.3222C34.441 58.3222 33.0204 57.8617 31.8404 57.0777C33.4031 57.006 35.4803 56.6135 36.7691 55.8546C38.0182 55.1189 39.3442 54.2014 39.5862 52.9757C40.4941 52.5277 42.23 52.7382 42.4512 54.5428C41.19 56.7954 38.7605 58.3222 35.9701 58.3222V58.3222ZM35.9701 58.7891C40.3108 58.7891 43.8427 55.2999 43.8427 51.0125C43.8427 46.7241 40.3108 43.235 35.9701 43.235C31.6285 43.235 28.0967 46.7241 28.0967 51.0125C28.0967 55.2999 31.6285 58.7891 35.9701 58.7891" fill="#040606"/>
<path d="M47.0687 1.12248L47.4323 1.35991C51.4219 3.96914 54.6338 4.44671 59.5214 4.44671C61.2447 4.44671 63.093 4.12683 64.8647 3.52291L65.3285 3.36433L67.646 6.57208L67.4075 6.88658C58.7978 18.1863 65.5114 30.3857 70.2637 35.2556L70.703 35.7063L70.2548 36.148C69.6318 36.7627 68.5528 37.8711 67.7509 38.7017L67.4798 38.9848L67.4972 39.3719L67.5014 39.5072C67.506 39.6058 67.5092 39.7079 67.5295 39.8862L67.5369 39.957C67.9391 47.4935 65.9618 53.6841 61.6599 58.3551C57.0884 63.3191 49.8784 66.3073 41.3572 66.7688L41.0291 66.7876L40.7856 67.0071C38.616 68.9577 36.4136 70.5777 36.3902 70.5957L36.0062 70.8779L35.6221 70.5975C35.531 70.5303 33.3559 68.9317 31.2146 67.0071L30.9711 66.7876L30.6427 66.7688C22.1218 66.3073 14.9111 63.3191 10.3396 58.3551C6.03671 53.6823 4.05941 47.4917 4.46373 39.9552L4.46975 39.8845C4.48925 39.7169 4.49315 39.6255 4.49739 39.5198L4.4981 39.492L4.49845 39.4884L4.50235 39.3719L4.51936 38.9839L4.24863 38.7017C3.49245 37.9177 2.38332 36.777 1.74478 36.148L1.29688 35.7063L1.73627 35.2556C6.48887 30.3857 13.2013 18.1863 4.59236 6.88658L4.35282 6.57208L6.67206 3.36433L7.13521 3.52291C8.90697 4.12683 10.7542 4.44671 12.4782 4.44671C17.3658 4.44671 20.5773 3.96914 24.5669 1.35991L24.9312 1.12248L25.2901 1.36799C28.8096 3.78098 32.2128 4.90459 36.0004 4.90459C39.7875 4.90459 43.1899 3.78098 46.7097 1.36799L47.0687 1.12248" fill="#CAA91E"/>
<path d="M9.78404 29.0244C12.4811 22.9153 13.4856 15.0688 8.94922 7.39977C10.0828 7.59869 11.2724 7.72235 12.4783 7.72235C17.1209 7.72235 20.7765 7.3048 24.8824 5.01277C28.1187 6.94639 31.7455 8.17574 35.9921 8.17933C40.2546 8.17574 43.88 6.94639 47.117 5.01277C51.2236 7.3048 54.8791 7.72235 59.5215 7.72235C60.7274 7.72235 61.9169 7.59869 63.0622 7.38096C58.5148 15.0688 59.518 22.9153 62.2157 29.0244H9.78404Z" fill="white"/>
<path d="M62.2154 29.0244C59.5177 22.9153 58.5145 15.0688 63.0619 7.38096C61.9166 7.59869 60.7271 7.72235 59.5212 7.72235C54.8788 7.72235 51.2233 7.3048 47.1166 5.01277C43.8797 6.94639 40.2543 8.17574 35.9918 8.17933C35.9507 8.17933 35.9106 8.17753 35.8691 8.17753V29.0244H62.2154" fill="#EDC720"/>
<path d="M56.4414 58.5498C61.608 54.8197 64.6592 48.8629 64.211 40.1732C64.1593 39.6795 64.122 39.6509 64.0824 39.1527H56.4414V58.5498Z" fill="#293D81"/>
<path d="M48.2646 62.2891C51.3401 61.4683 54.1079 60.2354 56.4431 58.5491V39.1528H48.2646V62.2891" fill="#7B1941"/>
<path d="M15.5566 58.5491C17.8929 60.2354 20.6597 61.4683 23.7362 62.2891V39.1528H15.5566V58.5491" fill="#7B1941"/>
<path d="M7.78855 40.1733C7.34029 48.863 10.3917 54.8206 15.5585 58.5508V39.1528H7.91682C7.87713 39.6509 7.84064 39.6796 7.78855 40.1733" fill="#293D81"/>
<path d="M36.0202 43.4422C37.5164 43.4422 38.9079 43.8705 40.09 44.5989V39.1529H31.9111V44.624C33.1011 43.8803 34.5078 43.4422 36.0202 43.4422" fill="#7B1941"/>
<path d="M36.0202 58.6647C34.5078 58.6647 33.1011 58.2275 31.9111 57.4829V63.5078C32.0554 63.5149 32.1985 63.5239 32.3435 63.532C35.0603 63.5454 37.5235 63.5597 39.6573 63.532C39.8027 63.5239 39.9454 63.5149 40.09 63.5078V57.508C38.9079 58.2364 37.5164 58.6647 36.0202 58.6647" fill="#7B1941"/>
<path d="M40.0879 39.153V44.5972C42.2689 45.9413 43.725 48.3274 43.725 51.0531C43.725 53.7797 42.2689 56.164 40.0879 57.5089V63.5078C42.9759 63.3636 45.7257 62.9657 48.2667 62.2892V39.153H40.0879" fill="#293D81"/>
<path d="M28.3159 51.0531C28.3159 48.3435 29.7535 45.9717 31.9129 44.6223V39.153H23.7334V62.2892C26.2741 62.9657 29.0246 63.3636 31.9129 63.5078V57.4838C29.7535 56.1344 28.3159 53.7636 28.3159 51.0531Z" fill="#293D81"/>
<path d="M11.626 14.249C12.1742 16.8932 12.1929 19.488 11.8403 21.9566H19.7849V29.0244H27.5878V21.9566H35.9014V14.249H27.5878V6.40968C26.6548 6.00289 25.7537 5.53336 24.882 5.01277C23.1386 5.98585 21.4756 6.61845 19.7849 7.02793V14.249H11.626" fill="#C01A39"/>
<path d="M52.6939 29.0244V7.13544C51.7538 6.93294 50.8246 6.66324 49.8906 6.30752V29.0244H52.6939" fill="#C01A39"/>
<path d="M41.4775 29.0244V7.44905C40.5749 7.69546 39.6412 7.88362 38.6738 8.00637V29.0244H41.4775Z" fill="#C01A39"/>
<path d="M58.3026 29.0244V7.70891C57.3332 7.69099 56.4023 7.64707 55.499 7.56195V29.0244H58.3026" fill="#C01A39"/>
<path d="M47.0863 29.0244V5.03069C46.1844 5.5683 45.2507 6.04857 44.2822 6.46612V29.0244H47.0863Z" fill="#C01A39"/>
<path d="M66.8034 38.7477C66.8839 39.5308 66.8371 39.5003 66.8917 39.9582C67.8286 57.3339 55.5736 65.5379 40.7634 66.1436C38.4994 68.2322 36.0062 70.0691 36.0062 70.0691C36.0062 70.0691 33.5006 68.2322 31.2366 66.1436C16.426 65.5379 4.17074 57.3339 5.10801 39.9582C5.16293 39.5003 5.1158 39.5308 5.1966 38.7477C4.34756 37.8615 2.94184 36.4126 2.20018 35.6806C7.51229 30.2363 13.7103 17.7798 5.10694 6.48631L6.92407 4.10646C8.6441 4.69336 10.5565 5.06612 12.4782 5.06612C17.4116 5.06612 20.7807 4.58226 24.9231 1.87268C28.1973 4.11812 31.748 5.52398 36.0005 5.52398C40.2525 5.52398 43.803 4.11812 47.0776 1.87268C51.2189 4.58226 54.5871 5.06612 59.5215 5.06612C61.4427 5.06612 63.3555 4.69336 65.0756 4.10646L66.8927 6.48631C58.2891 17.7798 64.4874 30.2363 69.8005 35.6806C69.0582 36.4126 67.6521 37.8615 66.8034 38.7477V38.7477ZM72 35.7021L70.9306 34.6044C66.3669 29.9281 59.9127 18.2278 68.1464 7.41908L68.7928 6.56874L65.6797 2.26067L64.5636 2.64148C62.8867 3.21404 61.1434 3.5151 59.5215 3.5151C54.8189 3.5151 51.737 3.06171 47.9437 0.580624L47.0563 2.37958e-06L46.1826 0.600334C42.8243 2.90132 39.5902 3.97296 36.0005 3.97296C32.4106 3.97296 29.1746 2.90132 25.8178 0.600334L24.9437 2.37958e-06L24.0567 0.580624C20.263 3.06171 17.1811 3.5151 12.4782 3.5151C10.856 3.5151 9.11291 3.21404 7.43647 2.64148L6.32025 2.26067L3.20583 6.56874L3.85254 7.41908C12.087 18.2278 5.63281 29.9281 1.07015 34.6044L0 35.7021L1.09141 36.7773C1.67786 37.3552 2.71824 38.4224 3.57791 39.3166C3.57578 39.3659 3.57508 39.4107 3.5733 39.4546C3.56976 39.5478 3.56727 39.6258 3.5492 39.7754L3.5407 39.8758C3.12008 47.6712 5.17781 54.0903 9.65511 58.953C14.4013 64.1069 21.8196 67.1892 30.592 67.6641C32.7653 69.6201 34.9719 71.2411 35.0707 71.3136L36.0083 72L36.9438 71.3118C37.042 71.2393 39.2365 69.6184 41.408 67.6641C50.1804 67.1892 57.5984 64.1069 62.3439 58.953C66.8222 54.0903 68.8792 47.6721 68.4593 39.8758L68.4504 39.7754C68.4324 39.6249 68.4296 39.5469 68.4274 39.4528C68.4253 39.4107 68.4235 39.3659 68.4218 39.3166C69.2821 38.4224 70.3232 37.3543 70.9086 36.7773L72 35.7021" fill="#040606"/>
<path d="M8.0227 40.1978C8.04573 39.9819 8.06523 39.8565 8.08365 39.7409C8.10031 39.6342 8.11626 39.5348 8.13219 39.3869H63.8678C63.8837 39.5366 63.9003 39.6342 63.9163 39.7418C63.9347 39.8565 63.9546 39.9819 63.9773 40.1862C64.3149 46.7388 62.6665 52.0325 59.0776 55.9222C54.9458 60.3969 48.2277 62.9488 39.6534 63.2991C37.6084 63.3269 35.2604 63.3153 32.6765 63.3009L32.3533 63.2991C23.7727 62.9488 17.0537 60.3969 12.9234 55.9222C9.33384 52.0334 7.68572 46.7388 8.0227 40.1978V40.1978ZM7.68288 39.1352C7.66161 39.4013 7.64071 39.5276 7.61874 39.6692C7.59925 39.791 7.5787 39.9237 7.55354 40.162C7.20911 46.8436 8.89867 52.2511 12.5758 56.2358C16.7929 60.8046 23.6253 63.4075 32.3423 63.7642L32.6737 63.765C34.1244 63.774 35.5007 63.7803 36.7909 63.7803C37.8022 63.7803 38.7607 63.7767 39.6665 63.7633C48.3751 63.4075 55.207 60.8046 59.4241 56.2358C63.1016 52.2502 64.7919 46.8436 64.445 40.1503C64.4216 39.9236 64.4004 39.791 64.3812 39.6692C64.3593 39.5276 64.3383 39.4013 64.3174 39.1352L64.2998 38.9201H7.69989L7.68288 39.1352Z" fill="#040606"/>
<path d="M9.39948 7.70828C10.4608 7.87136 11.4944 7.95289 12.4785 7.95289C17.2534 7.95289 20.8246 7.51384 24.8784 5.28094C28.34 7.32567 31.874 8.35071 35.666 8.40806V28.7917H10.1412C12.3817 23.5535 13.9608 15.7788 9.39948 7.70828ZM36.1362 8.41075C40.0075 8.38297 43.6049 7.35882 47.1226 5.28094C51.1757 7.51384 54.7465 7.95289 59.5218 7.95289C60.5327 7.95289 61.5681 7.86687 62.6089 7.69662C58.0434 15.7797 59.6188 23.5535 61.8587 28.7917H36.1362V8.41075ZM9.56858 28.9306L9.42507 29.2559H62.5745L62.431 28.9306C60.1231 23.7014 58.3921 15.7366 63.2655 7.49771L63.5266 7.05597L63.0182 7.15273C61.8417 7.37673 60.6652 7.48784 59.5218 7.48784C54.778 7.48784 51.2473 7.04969 47.2342 4.80963L47.1137 4.74243L46.9961 4.81322C43.4731 6.91888 39.8736 7.94393 35.9927 7.94662C32.1221 7.94393 28.5279 6.91888 25.0038 4.81322L24.8865 4.74243L24.7664 4.80963C20.7533 7.04969 17.2219 7.48784 12.4785 7.48784C11.3712 7.48784 10.1971 7.38213 8.99059 7.17067L8.49023 7.08286L8.74715 7.51652C13.6099 15.7393 11.8783 23.7014 9.56858 28.9306" fill="#040606"/>
<path d="M29.2927 32.0455V30.5115H24.0312V37.7119H25.6141V34.7425H27.7637V33.2202H25.6141V32.0455H29.2927" fill="#040606"/>
<path d="M35.4533 31.9533C36.0277 31.9533 36.4324 32.1899 36.6893 32.6773L36.7229 32.7418L38.1871 32.0752L38.1531 32.0053C37.6393 30.956 36.7123 30.4005 35.4739 30.4005C33.5614 30.4005 32.2266 31.9273 32.2266 34.1118C32.2266 36.3653 33.481 37.8223 35.4224 37.8223C36.6879 37.8223 37.6007 37.273 38.1322 36.1888L38.1637 36.1252L36.8331 35.3466L36.7939 35.4111C36.415 36.0374 36.0546 36.2704 35.4636 36.2704C34.498 36.2704 33.8492 35.4021 33.8492 34.1118C33.8492 32.7803 34.4643 31.9533 35.4533 31.9533" fill="#040606"/>
<path d="M45.3504 36.2191H43.5326V34.5498H45.3504C45.9918 34.5498 46.2916 34.8151 46.2916 35.3814C46.2916 35.9297 45.9656 36.2191 45.3504 36.2191ZM43.5326 31.963H45.2686C45.9762 31.963 46.0669 32.2838 46.0669 32.5607C46.0669 32.9567 45.8291 33.1485 45.3398 33.1485H43.5326V31.963ZM47.67 32.4505C47.67 31.2372 46.7948 30.5115 45.3298 30.5115H41.9805V37.7119H45.2987C46.9361 37.7119 47.9146 36.8329 47.9146 35.3599C47.9146 34.6771 47.5807 34.118 46.9943 33.8097C47.4255 33.5006 47.67 33.0123 47.67 32.4505" fill="#040606"/>
<path d="M31.3039 45.3389C31.1661 45.8765 31.0332 46.346 30.9269 46.8253C30.5466 48.5475 30.5505 51.1406 31.9694 52.4174C31.4832 53.2776 30.5881 53.7767 29.4928 53.7767C29.3617 53.7767 29.2341 53.7686 29.1083 53.7516C28.7618 52.9058 28.5704 51.9811 28.5704 51.0125C28.5704 48.7231 29.6366 46.6793 31.3039 45.3389V45.3389ZM40.1634 47.32C38.8711 46.6076 37.1748 45.9553 35.9513 46.458C35.026 45.8908 34.8665 44.4599 36.0342 43.7027C39.9413 43.735 43.1265 46.759 43.3559 50.5698C42.6581 49.2509 41.3831 47.9929 40.1634 47.32ZM39.6241 52.49C39.6121 52.2203 39.549 51.9372 39.4236 51.6397C39.0302 50.7123 37.6716 49.5833 35.9693 50.7446C34.7174 49.8145 34.794 48.3889 35.3467 47.5243C36.2064 46.1775 38.1621 46.7142 39.9487 47.6999C41.3977 48.5 42.9164 50.172 43.3384 51.6845C43.2665 52.4694 43.0681 53.2194 42.7637 53.9138C42.2608 52.3655 40.6287 52.1397 39.6241 52.49V52.49ZM31.1431 48.9946C31.1221 47.5628 31.5335 46.3084 31.8571 44.9356C32.8645 44.2681 34.0476 43.8398 35.3237 43.7323C34.4694 44.6516 34.6458 45.9992 35.5271 46.6936C35.3201 46.8433 35.1338 47.0404 34.9743 47.2913C34.3222 48.311 34.2291 50.0287 35.7439 51.1209C35.6518 51.9766 34.4962 52.818 33.6958 52.7167C31.9803 52.4999 31.1703 50.9274 31.1431 48.9946V48.9946ZM32.3209 52.6863C32.6837 52.921 33.1193 53.0832 33.6394 53.1486C34.6667 53.2785 36.0958 52.2705 36.1861 51.1254C37.5993 50.1371 38.6886 51.034 39.0178 51.809C39.666 53.3403 38.3006 54.446 36.543 55.4827C35.1823 56.282 32.8103 56.6664 31.2667 56.6547C30.451 55.9899 29.7812 55.1557 29.3139 54.2077C29.373 54.2104 29.4322 54.2122 29.4928 54.2122C30.7107 54.2122 31.7444 53.6602 32.3209 52.6863ZM35.9701 58.3222C34.441 58.3222 33.0204 57.8617 31.8404 57.0777C33.4031 57.006 35.4803 56.6135 36.7691 55.8546C38.0182 55.1189 39.3442 54.2014 39.5862 52.9757C40.4941 52.5277 42.23 52.7382 42.4512 54.5428C41.19 56.7954 38.7605 58.3222 35.9701 58.3222V58.3222ZM35.9701 58.7891C40.3108 58.7891 43.8427 55.2999 43.8427 51.0125C43.8427 46.7241 40.3108 43.235 35.9701 43.235C31.6285 43.235 28.0967 46.7241 28.0967 51.0125C28.0967 55.2999 31.6285 58.7891 35.9701 58.7891" fill="#040606"/>
</svg>